<svg id="Layer_1" data-name="Layer 1" xmlns="http://www.w3.org/2000/svg" viewBox="0 0 300 129.29"><defs><style>.cls-1{fill:#fff;}</style></defs><title>signature_print</title><path class="cls-1" d="M86.31,84.5a51.78,51.78,0,0,0-10.53-2.9l-2.61-.46-1.82-.34-3-.59L65,79.47c-2.31-.54-4.67-1.11-7.06-1.78a120.65,120.65,0,0,1-14.62-5,63.91,63.91,0,0,1-14-8A35.13,35.13,0,0,1,23.51,59a23.11,23.11,0,0,1-3.65-7.08,23.72,23.72,0,0,1-.65-8A32.79,32.79,0,0,1,20.9,36a35.05,35.05,0,0,1,3.67-7.16,42.29,42.29,0,0,1,5.15-6.09,55.5,55.5,0,0,1,6-5,67.35,67.35,0,0,1,6.5-4A84,84,0,0,1,55.46,8,97.71,97.71,0,0,1,67.79,4.69,72.43,72.43,0,0,1,86.38,3.05a42.6,42.6,0,0,1,5.07.67c0.58,0.09,1,.22,1.31.28l0.45,0.1,0.45,0.1c0.3,0.06.73,0.18,1.3,0.34s1.27,0.34,2.08.63l1.31,0.44,1.45,0.58a37.2,37.2,0,0,1,7,3.75,28,28,0,0,1,7.25,7.2,23.69,23.69,0,0,1,3.89,11.42,35.67,35.67,0,0,1-2.07,13.8A66.19,66.19,0,0,1,109,56.27a136.47,136.47,0,0,1-9.81,13.31,231.27,231.27,0,0,1-23.26,24.7c-4.13,3.77-8.38,7.28-12.62,10.57-2.12,1.64-4.24,3.23-6.34,4.79L53.82,112l-1.53,1.17-1.28,1a47.71,47.71,0,0,0-5.12,4.57c-3.24,3.49-4.14,6.76-3.62,10.58a18.41,18.41,0,0,1,2.34-4.47A34.47,34.47,0,0,1,48,120.73a47,47,0,0,1,4.83-4.28l1.24-1,1.51-1.15,3.1-2.32c2.1-1.56,4.23-3.17,6.38-4.83,4.29-3.32,8.61-6.89,12.8-10.72a234.08,234.08,0,0,0,23.56-25c7.2-8.78,13.79-18.13,17.21-28.14a38.59,38.59,0,0,0,2.22-15,26.66,26.66,0,0,0-4.39-12.84,30.87,30.87,0,0,0-8-8,40.11,40.11,0,0,0-7.56-4.05l-1.56-.62-1.39-.47c-0.86-.31-1.61-0.5-2.21-0.67s-1.07-.3-1.38-0.36l-0.48-.11L93.4,1.12C93.08,1.05,92.62.92,92,.82A45.68,45.68,0,0,0,86.59.11,75.23,75.23,0,0,0,67.2,1.79,100.51,100.51,0,0,0,54.51,5.22a86.81,86.81,0,0,0-13.66,5.93,69.85,69.85,0,0,0-6.8,4.21,58.31,58.31,0,0,0-6.4,5.3,45.29,45.29,0,0,0-5.54,6.55,38,38,0,0,0-4,7.82A30.58,30.58,0,0,0,17,52.75a26,26,0,0,0,4.14,8.06,38.09,38.09,0,0,0,6.26,6.26,66.77,66.77,0,0,0,14.72,8.36,123.45,123.45,0,0,0,15,5.12c2.44,0.68,4.85,1.26,7.19,1.81l3.48,0.75,3,0.59L72.64,84l2.65,0.45A32.51,32.51,0,0,0,86.31,84.5Z" transform="translate(0 0)"/><path class="cls-1" d="M0,114.44a22.33,22.33,0,0,0,5.29-.65c0.84-.22,1.68-0.5,2.58-0.83s1.82-.81,2.86-1.32c0.56-.26,1.34-0.74,2.33-1.31l1.6-.94,5.67-3.81c4.19-2.75,8.93-5.6,13.77-8.6s9.83-6.09,14.65-9.22c9.65-6.26,18.69-12.64,24.87-18.24A43.93,43.93,0,0,0,80.52,62l0.14-.19,0.07-.1,0,0-2.62-1.31v0l0,0.06L78,60.86l-0.23.78c-0.13.49-.24,0.92-0.31,1.28-0.15.72-.19,1.17-0.2,1.25h0a7.88,7.88,0,0,0,0,1.86l0,0.3a2.4,2.4,0,0,0,.08.35l0.12,0.43a4.51,4.51,0,0,0,.31.65,3.07,3.07,0,0,0,.66.78,3.32,3.32,0,0,0,1.11.57,4.8,4.8,0,0,0,2.29-.06c2.93-.72,5.42-3.16,9-4a9.84,9.84,0,0,1,2.8-.29,5.64,5.64,0,0,1,1.37.18,4.17,4.17,0,0,1,1.22.54c0.43,0.27,1,.65,1.58,1a13,13,0,0,0,1.94.89,20.61,20.61,0,0,0,4.1.92c1.38,0.17,2.77.26,4.18,0.32l2.12,0c0.71,0,1.43-.06,2.15-0.08,1.44-.08,2.92-0.1,4.38-0.23l4.4-.47c5.87-.71,11.79-1.66,17.56-2.3l4.29-.49c1.42-.15,2.82-0.23,4.21-0.34l4.09-.31c0.67-.06,1.34-0.09,2-0.1l1.83-.05,6.61-.19a40.12,40.12,0,0,0,10.86-1.19,39.51,39.51,0,0,0-10.87-1.76l-6.72.17-1.86.05c-0.67,0-1.35,0-2,.1l-4.15.31c-1.4.12-2.83,0.19-4.27,0.35l-4.34.49c-5.84.65-11.78,1.6-17.57,2.3l-4.3.46c-1.42.14-2.82,0.14-4.2,0.22a45.5,45.5,0,0,1-8-.25,17.68,17.68,0,0,1-3.49-.77,12.56,12.56,0,0,1-3-1.62,7.13,7.13,0,0,0-2-.88,8.57,8.57,0,0,0-2-.28,12.77,12.77,0,0,0-3.61.37,21.45,21.45,0,0,0-5.51,2.38,15.07,15.07,0,0,1-3.49,1.67,2.47,2.47,0,0,1-.83.08s0,0.06,0,0,0,0-.05-0.1l0-.15a0.36,0.36,0,0,1,0-.13V65.71a4.94,4.94,0,0,1,0-1.2h0c0-.06,0-0.4.16-1,0.06-.3.15-0.66,0.26-1.09l0.2-.67,0.12-.36v0h0L78.27,60v0l-0.06.08-0.12.17a41.16,41.16,0,0,1-6.43,7c-6,5.4-14.92,11.73-24.5,17.94-4.79,3.11-9.76,6.2-14.6,9.19S23,100.29,18.7,103.1l-5.6,3.76-1.53.9c-0.94.55-1.69,1-2.22,1.27-1,.5-1.83,1-2.63,1.45s-1.53.87-2.24,1.31C3,112.61,1.72,113.54,0,114.44Z" transform="translate(0 0)"/><path class="cls-1" d="M191.49,1.46A40.84,40.84,0,0,0,184.64,10l-4.81,7.91c-3.49,5.78-7.69,12.55-11.7,19s-7.93,12.6-10.78,17.16l-3.43,5.44-1.3,2L147.8,69c-2.94,4.49-6.84,10.63-11.13,16.92l-6.41,9.53-3.12,4.62-3,4.25-3.83,5.44a40,40,0,0,0-5.07,9.73,39.72,39.72,0,0,0,7.47-8l3.86-5.45,3-4.26,3.13-4.63,6.43-9.56c4.3-6.31,8.21-12.46,11.15-17l4.82-7.42,1.3-2,3.44-5.44c2.85-4.56,6.81-10.67,10.81-17.17s8.23-13.26,11.72-19l3.43-5.64,1.37-2.3A38.9,38.9,0,0,0,191.49,1.46Z" transform="translate(0 0)"/><path class="cls-1" d="M143.17,45.24a39.75,39.75,0,0,0,11,.35l4.59-.47c3.31-.35,8.9-0.87,13.64-1.5L181,42.55l20.38-2.5,6.67-.83a39.65,39.65,0,0,0,10.59-2.79,40.1,40.1,0,0,0-11-.13l-6.66.81-20.34,2.51L172,40.68c-4.73.63-10.31,1.14-13.61,1.5l-4.58.48A39.93,39.93,0,0,0,143.17,45.24Z" transform="translate(0 0)"/><path class="cls-1" d="M173.94,55.24a2.46,2.46,0,0,0,0,1.48,2.63,2.63,0,0,0,.9,1.28,5.11,5.11,0,0,0,2.78.93,6.76,6.76,0,0,0,1.46,0l0.76-.1,0.73-.18c1-.26,1.89-0.61,2.88-0.86a14,14,0,0,1,2.36-.42c0.51,0,1.14-.07,1.68-0.06a2.2,2.2,0,0,1,1.12.27,3,3,0,0,1,.74,1.24,10.71,10.71,0,0,0,1.27,2.42,6.46,6.46,0,0,0,2.56,1.9,13.4,13.4,0,0,0,5.6.72l2.68-.12c0.89,0,1.75-.13,2.63-0.2,1.76-.15,3.51-0.28,5.23-0.39s3.43-.26,5.09-0.33l4.85-.21c3.12-.17,6-0.19,8.43-0.22l8-.1,8,0.12,8.45,0.13,10,0.38,10.46,0.39,9.81,0.54,6.65,0.36A40,40,0,0,0,300,63.36a39.8,39.8,0,0,0-10.77-2.08l-6.66-.39-9.83-.54L262.25,60l-10-.37-8.49-.12-8.07-.11-8.08.09c-2.46,0-5.35,0-8.5.21l-4.9.21c-1.68.08-3.4,0.22-5.14,0.34-3.48.2-7,.63-10.37,0.7a10.79,10.79,0,0,1-4.42-.49,3.49,3.49,0,0,1-1.33-1,8.33,8.33,0,0,1-.88-1.76,5.61,5.61,0,0,0-1.71-2.47c-0.24-.16-0.5-0.31-0.75-0.44a7.65,7.65,0,0,0-.75-0.24,2.68,2.68,0,0,0-.71-0.13l-0.58,0c-0.79,0-1.42.05-2,.07a16.34,16.34,0,0,0-2.88.53,24,24,0,0,0-2.94,1.11l-0.58.24-0.54.18a7.4,7.4,0,0,1-1.08.29,4.85,4.85,0,0,1-2.09.13,1.83,1.83,0,0,1-.91-0.5A2.19,2.19,0,0,1,173.94,55.24Z" transform="translate(0 0)"/><path class="cls-1" d="M219.35,46.12a2.29,2.29,0,0,0,2.3,1.33c0.25,0,.76-0.13,1.37-0.27l1.93-.57,2.39-.93s0.29-.1.71-0.31l1.6-.74c1.23-.53,2.44-1.28,2.87-1.5,0.76-.44,1-1.13,1.12-2.29-1.11-.47-1.77-0.68-2.53-0.29-0.41.19-1.6,0.92-2.74,1.42l-1.5.71c-0.4.2-.66,0.29-0.66,0.29l-2.2.84-1.7.5-1.13.24C220.41,44.69,220.15,45.25,219.35,46.12Z" transform="translate(0 0)"/></svg>